<svg t="1572424598306" class="icon" viewBox="0 0 1024 1024" version="1.1" xmlns="http://www.w3.org/2000/svg" p-id="17157" width="128" height="128"><path d="M924.63407408 512v276.70755555c0 75.00231111-60.68148148 135.92651852-135.44106667 135.92651853h-553.41511111c-75.00231111 0-136.41197037-61.16693333-136.41197038-135.92651853V235.29244445c0-75.00231111 61.40965925-135.92651852 136.41197038-135.92651853H512V2.27555555H235.7778963C106.89042963 2.27555555 2.27555555 106.40497778 2.27555555 235.29244445v553.4151111c0 128.64474075 104.61487408 233.01688889 233.50234075 233.0168889h553.41511111c128.64474075 0 232.53143703-104.37214815 232.53143704-233.0168889V512h-97.09037037z" p-id="17158"></path><path d="M512 50.82074075m-48.54518518 0a48.54518518 48.54518518 0 1 0 97.09037036 0 48.54518518 48.54518518 0 1 0-97.09037036 0Z" p-id="17159"></path><path d="M973.17925925 512m-48.54518517 0a48.54518518 48.54518518 0 1 0 97.09037037 0 48.54518518 48.54518518 0 1 0-97.09037037 0Z" p-id="17160"></path><path d="M816.13558518 433.11407408c-18.93262222-18.93262222-49.75881482-18.93262222-68.69143703 0L612.97398518 567.82696297c-3.15543703-21.60260741-4.61179259-43.69066667-4.61179259-66.26417779 0-174.03448889 94.90583703-326.46637037 235.44414816-408.2650074l-48.30245927-83.49771853-0.48545185-0.72817777C752.78411852 33.5872 713.46251852 63.68521482 677.78180741 99.36592592c-107.52758518 107.52758518-166.50998518 250.25042963-166.50998519 402.19685926 0 13.34992592 0.48545185 26.69985185 1.45635556 39.80705185l-108.25576296-108.25576295c-18.93262222-18.93262222-49.75881482-18.93262222-68.69143704 0-18.93262222 18.93262222-18.93262222 49.75881482 0 68.69143703l206.07431111 206.07431111c18.93262222 18.93262222 49.75881482 18.93262222 68.69143703 0l206.07431111-206.07431111c18.6898963-18.93262222 18.6898963-49.75881482-0.48545185-68.69143703z" p-id="17161"></path><path d="M819.77647408 50.82074075m-48.54518519 0a48.54518518 48.54518518 0 1 0 97.09037036 0 48.54518518 48.54518518 0 1 0-97.09037036 0Z" p-id="17162"></path></svg>