<svg t="1577166492944" class="icon" viewBox="0 0 1024 1024" version="1.1" xmlns="http://www.w3.org/2000/svg" p-id="2702" width="32" height="32"><path d="M436.48 814.592a21.76 21.76 0 0 0-21.76 21.76v107.52a21.76 21.76 0 0 0 43.52 0v-107.52a21.76 21.76 0 0 0-21.76-21.76zM516.096 819.2a22.016 22.016 0 0 0-22.016 22.016v159.744a22.016 22.016 0 0 0 44.032 0v-158.976a22.016 22.016 0 0 0-22.016-22.784zM768 438.784C773.376 143.104 528.896 9.216 512 0c-16.384 8.704-260.864 142.592-256 438.272a192.256 192.256 0 0 0-93.696 187.392c8.192 98.304 104.448 163.584 141.056 160s25.6-30.72 25.6-30.72l12.544-51.2s54.272 81.92 71.68 81.92h197.632c15.616 0 71.68-81.92 71.68-81.92l12.544 51.2s-10.752 27.392 25.6 30.72 132.864-61.696 141.056-160a192.256 192.256 0 0 0-93.696-186.88z m-256-14.592a102.4 102.4 0 1 1 102.4-102.4 102.4 102.4 0 0 1-102.4 102.4zM588.8 819.2a21.76 21.76 0 0 0-21.76 21.76v76.8a21.76 21.76 0 1 0 43.52 0v-76.8A21.76 21.76 0 0 0 588.8 819.2z" p-id="2703"></path></svg>